HIERARCHY
ROOT Hips
{
	OFFSET 0.00000 0.00000 0.00000
	CHANNELS 6 Xposition Yposition Zposition Zrotation Yrotation Xrotation 
	JOINT LHipJoint
	{
		OFFSET 0 0 0
		CHANNELS 3 Zrotation Yrotation Xrotation
		JOINT LeftUpLeg
		{
			OFFSET 1.24777 -1.64261 0.71711
			CHANNELS 3 Zrotation Yrotation Xrotation
			JOINT LeftLeg
			{
				OFFSET 2.49329 -6.85026 0.00000
				CHANNELS 3 Zrotation Yrotation Xrotation
				JOINT LeftFoot
				{
					OFFSET 2.36770 -6.50520 0.00000
					CHANNELS 3 Zrotation Yrotation Xrotation
					JOINT LeftToeBase
					{
						OFFSET 0.14820 -0.40718 2.21395
						CHANNELS 3 Zrotation Yrotation Xrotation
						End Site
						{
							OFFSET 0.00000 -0.00000 1.13491
						}
					}
				}
			}
		}
	}
	JOINT RHipJoint
	{
		OFFSET 0 0 0
		CHANNELS 3 Zrotation Yrotation Xrotation
		JOINT RightUpLeg
		{
			OFFSET -1.18320 -1.64261 0.71711
			CHANNELS 3 Zrotation Yrotation Xrotation
			JOINT RightLeg
			{
				OFFSET -2.46559 -6.77417 0.00000
				CHANNELS 3 Zrotation Yrotation Xrotation
				JOINT RightFoot
				{
					OFFSET -2.38450 -6.55136 0.00000
					CHANNELS 3 Zrotation Yrotation Xrotation
					JOINT RightToeBase
					{
						OFFSET -0.17454 -0.47954 2.02925
						CHANNELS 3 Zrotation Yrotation Xrotation
						End Site
						{
							OFFSET -0.00000 -0.00000 1.05076
						}
					}
				}
			}
		}
	}
	JOINT LowerBack
	{
		OFFSET 0 0 0
		CHANNELS 3 Zrotation Yrotation Xrotation
		JOINT Spine
		{
			OFFSET -0.02305 1.98660 0.00319
			CHANNELS 3 Zrotation Yrotation Xrotation
			JOINT Spine1
			{
				OFFSET -0.00718 1.99033 -0.00533
				CHANNELS 3 Zrotation Yrotation Xrotation
				JOINT Neck
				{
					OFFSET 0 0 0
					CHANNELS 3 Zrotation Yrotation Xrotation
					JOINT Neck1
					{
						OFFSET 0.00095 1.61015 0.10698
						CHANNELS 3 Zrotation Yrotation Xrotation
						JOINT Head
						{
							OFFSET -0.01060 1.59924 0.01317
							CHANNELS 3 Zrotation Yrotation Xrotation
							End Site
							{
								OFFSET -0.00458 1.63304 -0.00592
							}
						}
					}
				}
				JOINT LeftShoulder
				{
					OFFSET 0 0 0
					CHANNELS 3 Zrotation Yrotation Xrotation
					JOINT LeftArm
					{
						OFFSET 3.05381 1.47088 -0.01697
						CHANNELS 3 Zrotation Yrotation Xrotation
						JOINT LeftForeArm
						{
							OFFSET 4.25106 -0.00000 0.00000
							CHANNELS 3 Zrotation Yrotation Xrotation
							JOINT LeftHand
							{
								OFFSET 3.27592 -0.00000 0.00000
								CHANNELS 3 Zrotation Yrotation Xrotation
								JOINT LeftFingerBase
								{
									OFFSET 0 0 0
									CHANNELS 3 Zrotation Yrotation Xrotation
									JOINT LeftHandIndex1
									{
										OFFSET 0.65781 -0.00000 0.00000
										CHANNELS 3 Zrotation Yrotation Xrotation
										End Site
										{
											OFFSET 0.53034 -0.00000 0.00000
										}
									}
								}
								JOINT LThumb
								{
									OFFSET 0 0 0
									CHANNELS 3 Zrotation Yrotation Xrotation
									End Site
									{
										OFFSET 0.53844 -0.00000 0.53844
									}
								}
							}
						}
					}
				}
				JOINT RightShoulder
				{
					OFFSET 0 0 0
					CHANNELS 3 Zrotation Yrotation Xrotation
					JOINT RightArm
					{
						OFFSET -2.83695 1.31619 -0.22674
						CHANNELS 3 Zrotation Yrotation Xrotation
						JOINT RightForeArm
						{
							OFFSET -4.46073 -0.00000 0.00000
							CHANNELS 3 Zrotation Yrotation Xrotation
							JOINT RightHand
							{
								OFFSET -3.44416 -0.00000 0.00000
								CHANNELS 3 Zrotation Yrotation Xrotation
								JOINT RightFingerBase
								{
									OFFSET 0 0 0
									CHANNELS 3 Zrotation Yrotation Xrotation
									JOINT RightHandIndex1
									{
										OFFSET -0.61651 -0.00000 0.00000
										CHANNELS 3 Zrotation Yrotation Xrotation
										End Site
										{
											OFFSET -0.49705 -0.00000 0.00000
										}
									}
								}
								JOINT RThumb
								{
									OFFSET 0 0 0
									CHANNELS 3 Zrotation Yrotation Xrotation
									End Site
									{
										OFFSET -0.50464 -0.00000 0.50464
									}
								}
							}
						}
					}
				}
			}
		}
	}
}
MOTION
Frames: 6
Frame Time: .0083333
-13.6575 16.9862 -35.1283 0 0 0 0 0 0 -21 0 0 0 0 0 0 0 0 0 0 0 0 0 0 21 0 0 0 0 0 0 0 0 0 0 0 0 0 0 0 0 0 0 0 0 0 0 -16 0 0 21 0 0 11 0 0 0 -8 0 0 0 0 0 0 0 0 0 0 0 0 0 0 0 0 0 0 0 0 8 0 0 0 0 0 0 0 0 0 0 0 0 0 0 0 0 0
-13.6575 16.9862 -35.1283 -1.1533 -2.4795 9.0696 0.0000 0.0000 0.0000 -19.5456 -12.2800 -16.8859 3.5067 11.4734 33.8935 1.9473 15.5522 -35.7407 0.4056 4.0885 11.3257 0.0000 0.0000 0.0000 22.1401 7.4811 -17.5886 -3.2421 -11.0770 32.5399 -1.9458 -11.1981 -32.3661 -0.0050 -0.4557 1.2521 -2.6804 4.5161 -9.3441 2.8662 6.1687 -1.0653 5.2145 3.0210 3.5051 -3.4525 -4.1482 -14.1861 1.6399 -5.0414 4.8588 0.6832 -2.4665 3.8577 -0.0000 -0.0000 0.0000 -89.1399 9.1956 42.0002 23.7372 -34.8851 -7.5557 -0.0000 0.0000 -4.5846 8.1924 1.9812 0.2852 -7.1250 0.0000 -0.0000 -14.6677 31.7510 4.8954 -0.0000 -0.0000 0.0000 84.6126 -10.7197 26.6013 -20.7515 31.5372 -5.9194 0.0000 0.0000 14.8299 -27.0988 -14.0088 7.0611 7.1250 -0.0000 -0.0000 0.3270 -45.6354 -0.0051
-13.6614 16.9876 -35.1314 -1.1471 -2.3444 9.1693 0.0000 0.0000 0.0000 -19.4831 -12.0498 -17.1366 3.5092 11.4769 33.9058 1.9457 15.2819 -35.5094 0.3855 3.9869 11.0399 0.0000 0.0000 0.0000 22.1519 6.9511 -17.9212 -3.2410 -11.0753 32.5342 -1.9699 -10.8312 -32.2492 -0.0040 -0.4076 1.1199 -2.7828 4.4558 -9.3630 2.9052 6.0985 -1.1601 5.3007 2.9895 3.4090 -3.5094 -4.1259 -13.9133 1.6130 -5.0084 4.4074 0.7751 -2.4584 4.1128 0.0000 0.0000 0.0000 -89.1847 9.3342 41.9479 23.7678 -34.9177 -7.5732 -0.0000 0.0000 -4.5827 8.2031 1.9511 0.2812 -7.1250 0.0000 -0.0000 -14.6545 31.7220 4.9013 0.0000 0.0000 0.0000 84.6017 -10.9878 26.5741 -20.8134 31.6099 -5.9518 0.0000 0.0000 15.1441 -27.3531 -13.9103 7.0891 7.1250 -0.0000 -0.0000 0.0760 -45.5604 -0.0010
-13.6661 16.9864 -35.1254 -1.1336 -2.2091 9.0724 0.0000 0.0000 0.0000 -19.4704 -11.7955 -17.1115 3.5115 11.4803 33.9175 1.9584 15.0135 -35.3592 0.3576 3.8416 10.6315 0.0000 0.0000 0.0000 22.2051 7.1702 -17.6457 -3.2348 -11.0658 32.5021 -1.9076 -11.2704 -32.1902 -0.0013 -0.2311 0.6348 -2.8867 4.3954 -9.3355 2.9516 6.0268 -1.1644 5.3967 2.9536 3.3812 -3.4725 -4.1190 -13.7693 1.5420 -5.0050 4.3803 0.7476 -2.4605 4.0704 0.0000 0.0000 0.0000 -89.2303 9.3764 41.9309 23.7211 -34.8679 -7.5465 -0.0000 0.0000 -4.5850 8.1774 2.0131 0.2892 -7.1250 0.0000 -0.0000 -14.6846 31.7817 4.8902 0.0000 0.0000 0.0000 84.5601 -11.1093 26.6318 -20.7980 31.5918 -5.9438 0.0000 0.0000 15.0732 -27.3316 -13.8280 7.0420 7.1250 -0.0000 -0.0000 0.0861 -45.4664 -0.0010
-13.6679 16.9900 -35.1383 -1.1282 -2.0593 9.2956 0.0000 0.0000 0.0000 -19.3824 -11.6802 -17.5171 3.5131 11.4826 33.9254 1.9789 14.6881 -35.2086 0.3558 3.8322 10.6052 0.0000 0.0000 0.0000 22.1982 7.7180 -17.7213 -3.2310 -11.0600 32.4825 -1.8135 -11.8906 -32.0823 -0.0014 -0.2432 0.6682 -3.0158 4.3307 -9.3652 3.0219 5.9528 -1.3123 5.5285 2.9230 3.2305 -3.5148 -4.1155 -13.5843 1.4876 -4.9955 4.3449 0.7412 -2.4603 4.0200 -0.0000 -0.0000 0.0000 -89.3612 9.4896 41.8893 23.7267 -34.8739 -7.5497 -0.0000 0.0000 -4.5420 8.2547 1.8475 0.2680 -7.1250 0.0000 -0.0000 -14.5975 31.6223 4.9173 -0.0000 -0.0000 0.0000 84.3551 -11.4114 26.8301 -19.4186 29.9355 -5.2381 0.0000 0.0000 21.8271 -32.8101 -10.5816 6.7519 7.1250 -0.0000 -0.0000 -5.1998 -42.4530 -0.3278
-13.6721 16.9914 -35.1444 -1.1470 -1.9298 9.3917 0.0000 0.0000 0.0000 -19.2860 -11.4418 -17.7790 3.5142 11.4843 33.9312 2.0062 14.3107 -35.0578 0.3475 3.7876 10.4798 0.0000 0.0000 0.0000 22.2446 7.8944 -17.7659 -3.2270 -11.0537 32.4612 -1.7747 -12.1457 -32.0416 -0.0001 -0.0555 0.1525 -3.0278 4.2825 -9.3222 3.0208 5.8898 -1.4066 5.5177 2.8970 3.1143 -3.4926 -4.0936 -13.4062 1.4919 -4.9766 4.2418 0.7443 -2.4509 3.9464 0.0000 0.0000 0.0000 -89.3350 9.5801 41.8264 23.7647 -34.9144 -7.5714 -0.0000 0.0000 -4.5181 8.1728 1.9614 0.2816 -7.1250 0.0000 -0.0000 -14.6799 31.7312 4.9070 0.0000 0.0000 0.0000 84.4249 -11.2753 26.7914 -20.8134 31.6099 -5.9518 0.0000 0.0000 14.7185 -27.0736 -14.0427 7.0701 7.1250 -0.0000 -0.0000 0.3551 -45.6695 -0.0059
